<svg width="21" height="21" viewBox="0 0 21 21" fill="none" xmlns="http://www.w3.org/2000/svg">
<g clip-path="url(#clip0_129_773)">
<path fill-rule="evenodd" clip-rule="evenodd" d="M2.33333 21H18.6667C19.9553 21 21 19.9553 21 18.6667V2.33333C21 1.04467 19.9553 0 18.6667 0H2.33333C1.04467 0 0 1.04467 0 2.33333V18.6667C0 19.9553 1.04467 21 2.33333 21Z" fill="#0089CB"/>
<path fill-rule="evenodd" clip-rule="evenodd" d="M18.0834 18.0833H14.9671V12.7756C14.9671 11.3204 14.4142 10.5071 13.2624 10.5071C12.0093 10.5071 11.3547 11.3534 11.3547 12.7756V18.0833H8.35147V7.97221H11.3547V9.33418C11.3547 9.33418 12.2577 7.6633 14.4033 7.6633C16.548 7.6633 18.0834 8.97296 18.0834 11.6816V18.0833ZM4.76864 6.64824C3.74568 6.64824 2.91675 5.81281 2.91675 4.78245C2.91675 3.75209 3.74568 2.91666 4.76864 2.91666C5.7916 2.91666 6.62004 3.75209 6.62004 4.78245C6.62004 5.81281 5.7916 6.64824 4.76864 6.64824ZM3.21791 18.0833H6.34949V7.97221H3.21791V18.0833Z" fill="white"/>
</g>
<defs>
<clipPath id="clip0_129_773">
<rect width="21" height="21" fill="white"/>
</clipPath>
</defs>
</svg>
